PathFileType   4   (X/Y/Z)
DataRate	CameraRate	NumFrames	NumMarkers	Units	OrigDataRate	OrigDataStartFrame	OrigNumFrames
120.0	120.0	5	37	mm	120.0	1	164
Frame#	Time	midhip	hip_r	hip_l	knee_r	knee_l	ankle_r	ankle_l	midasis	asis_r	asis_l	psis_r	psis_l	epicondLat_r	epicondLat_l	epicondMed_r	epicondMed_l	malleolusLat_r	malleolusLat_l	malleolusMedv_r	malleolusMedv_l	neck	subclavicle_r	subclavicle_l	sternalnotch	xyphoidprocess	thighwand_r	thighwand_l	upperleg1_r	upperleg1_l	upperleg2_r	upperleg2_l	shankwand_r	shankwand_l	lowerleg1_r	lowerleg1_l	toe_r	toe_l
 	 	X1	Y1	Z1	X2	Y2	Z2	X3	Y3	Z3	X4	Y4	Z4	X5	Y5	Z5	X6	Y6	Z6	X7	Y7	Z7	X8	Y8	Z8	X9	Y9	Z9	X10	Y10	Z10	X11	Y11	Z11	X12	Y12	Z12	X13	Y13	Z13	X14	Y14	Z14	X15	Y15	Z15	X16	Y16	Z16	X17	Y17	Z17	X18	Y18	Z18	X19	Y19	Z19	X20	Y20	Z20	X21	Y21	Z21	X22	Y22	Z22	X23	Y23	Z23	X24	Y24	Z24	X25	Y25	Z25	X26	Y26	Z26	X27	Y27	Z27	X28	Y28	Z28	X29	Y29	Z29	X30	Y30	Z30	X31	Y31	Z31	X32	Y32	Z32	X33	Y33	Z33	X34	Y34	Z34	X35	Y35	Z35	X36	Y36	Z36	X37	Y37	Z37

	1	0.30833	732.303	740.980	-271.786	714.230	731.932	-208.509	726.162	744.461	-337.671	674.117	398.393	-166.231	725.956	424.817	-326.174	436.972	148.554	-157.275	777.460	70.827	-307.366	790.111	806.270	-260.028	780.800	796.492	-159.226	799.423	816.047	-360.831	628.812	845.037	-240.719	632.306	848.363	-295.361	658.985	406.830	-114.031	729.495	422.860	-380.524	701.336	384.162	-209.114	719.983	399.325	-290.758	425.497	160.650	-123.685	772.945	68.223	-343.997	444.388	150.839	-181.297	777.500	69.744	-277.599	639.226	1211.865	-268.284	745.109	1158.693	-218.118	754.763	1162.922	-294.810	735.621	1158.809	-259.784	768.460	1078.334	-257.660	757.768	523.884	-47.971	876.926	546.602	-327.681	700.615	574.803	-107.342	809.872	605.784	-369.293	698.667	486.231	-111.212	798.399	519.202	-367.712	482.004	268.371	-53.643	776.031	191.082	-424.142	472.817	227.187	-125.681	759.987	151.180	-350.460	439.794	47.900	-149.203	881.710	39.818	-317.906
	2	0.31667	736.211	740.803	-273.302	718.248	731.784	-209.457	730.217	744.379	-338.609	684.796	397.784	-165.358	727.224	425.010	-327.080	444.703	151.901	-156.319	777.381	70.863	-307.542	794.139	806.153	-260.916	784.801	796.326	-160.155	803.476	815.979	-361.678	632.816	844.805	-241.780	636.306	848.382	-296.321	670.137	406.163	-113.014	730.783	423.014	-381.427	710.652	383.059	-208.366	717.901	402.148	-291.234	433.937	163.661	-122.378	772.897	68.207	-344.173	452.029	153.924	-180.262	777.443	69.934	-277.774	644.189	1211.982	-269.512	749.848	1158.623	-219.145	759.849	1162.951	-295.910	740.545	1158.809	-260.911	773.285	1078.294	-258.757	767.392	524.307	-48.571	879.106	545.759	-328.511	708.598	574.060	-107.422	814.471	605.241	-370.743	707.884	485.589	-110.876	800.392	518.957	-368.560	492.894	269.208	-51.728	776.554	190.822	-424.627	482.330	229.231	-124.331	760.133	151.209	-351.007	443.947	50.412	-148.604	881.609	39.750	-317.992
	3	0.32500	739.943	740.649	-274.448	722.155	731.625	-210.304	734.131	744.292	-339.448	695.422	397.274	-164.871	728.418	425.161	-327.924	452.667	155.261	-155.377	777.301	70.879	-307.703	798.071	806.000	-261.717	788.730	796.122	-161.001	807.411	815.879	-362.433	636.595	844.640	-242.765	640.218	848.440	-297.224	681.379	405.535	-112.339	731.992	423.135	-382.269	717.044	382.277	-208.382	718.277	402.978	-292.076	442.634	166.669	-121.092	772.848	68.174	-344.334	459.849	156.967	-179.285	777.419	70.088	-277.933	649.117	1212.113	-270.709	754.754	1158.524	-220.326	765.028	1162.872	-296.796	745.599	1158.740	-262.002	778.229	1078.183	-259.768	777.341	524.653	-49.483	881.170	544.900	-329.279	716.795	573.275	-107.610	817.568	604.781	-371.385	716.154	485.004	-110.953	802.378	518.784	-369.259	504.009	270.055	-49.990	777.049	190.566	-425.068	491.877	231.323	-122.946	760.287	151.187	-351.469	448.560	53.034	-147.975	881.519	39.696	-318.063
	4	0.33333	743.467	740.460	-275.321	725.916	731.459	-211.299	738.103	744.245	-340.412	705.981	396.809	-164.741	729.573	425.316	-328.714	460.878	158.559	-154.440	777.197	70.875	-307.858	801.965	805.830	-262.520	792.462	795.859	-161.838	811.468	815.801	-363.203	640.199	844.533	-243.662	644.039	848.529	-298.063	692.660	404.940	-112.002	733.183	423.227	-383.054	717.321	382.015	-209.014	720.934	401.947	-293.270	451.588	169.613	-119.831	772.780	68.126	-344.491	467.937	159.889	-178.304	777.407	70.185	-278.074	653.914	1212.222	-271.865	759.731	1158.346	-221.496	768.340	1162.537	-297.824	749.666	1158.536	-262.791	782.018	1077.853	-261.149	787.523	524.963	-50.676	883.197	544.068	-330.003	725.187	572.455	-107.918	819.264	604.752	-371.390	722.184	484.678	-111.395	804.323	518.567	-369.889	515.331	270.913	-48.438	777.524	190.313	-425.470	501.603	233.266	-121.606	760.495	151.122	-351.759	453.699	55.722	-147.363	881.444	39.651	-318.119
	5	0.34167	746.882	740.291	-276.056	729.513	731.250	-212.505	742.108	744.238	-341.558	716.509	396.365	-164.909	730.731	425.495	-329.446	469.338	161.743	-153.511	777.073	70.855	-308.011	805.808	805.614	-263.370	795.987	795.486	-162.734	815.630	815.742	-364.005	643.679	844.451	-244.476	647.764	848.636	-298.835	703.966	404.377	-111.961	734.402	423.300	-383.777	738.546	380.410	-207.543	719.201	404.465	-293.699	460.779	172.455	-118.607	772.689	68.068	-344.644	476.319	162.692	-177.303	777.402	70.232	-278.199	658.688	1212.287	-272.978	764.413	1158.162	-222.346	774.309	1162.499	-298.963	755.044	1158.430	-264.020	787.372	1077.746	-261.983	797.823	525.292	-52.103	885.247	543.282	-330.686	733.733	571.604	-108.332	823.690	603.993	-372.370	736.572	484.453	-110.928	806.290	518.198	-370.475	526.823	271.792	-47.082	777.976	190.063	-425.842	511.683	235.002	-120.497	760.802	151.184	-352.187	459.527	58.431	-146.695	881.382	39.619	-318.175
